# xmcd
#
# Track frame offsets:
#	150
#	19172
#	50722
#	68878
#	94121
#	110733
#	131220
#	152729
#	173415
#	189102
#	208007
# Disc length: 2949 seconds
# Revision: 1
# Processed by: cddbd v1.5.1PL0 Copyright (c) Steve Scherf et al.
#
# Submitted via: libkcddb 0.21
#
DISCID=960b830b
DTITLE=K'Alaqaya - Thujrumpisay
DYEAR=1998
DGENRE=Folk
TTITLE0=Pueblos de Viento
TTITLE1=He vuelto/Achiri
TTITLE2=Sikuris Lliqui
TTITLE3=Achireña
TTITLE4=Nairaqat Sarañani
TTITLE5=Thujrumpisay
TTITLE6=En las Gradas
TTITLE7=Sariri
TTITLE8=Para un Amigo
TTITLE9=Sarjtaja
TTITLE10=Taquirikusunchis
EXTD=0x960b830b
EXTT0=
EXTT1=
EXTT2=
EXTT3=
EXTT4=
EXTT5=
EXTT6=
EXTT7=
EXTT8=
EXTT9=
EXTT10=
PLAYORDER=
